REM DIRINDEX 1\2\4,1\2\5,1\3\6,1\3\7,1\3\8
REM DIRNAME cjc092,folder01,folder02,folder03,folder04,folder05,folder06,folder07
TITLE ""
FILE "LEVEL4-015-midashigo.mp3" MP3
  TRACK 01 AUDIO
    TITLE "0:"
    INDEX 01 00:00:00
  TRACK 02 AUDIO
    TITLE "6:cjc092_3141"
    INDEX 01 00:00:05
  TRACK 03 AUDIO
    TITLE "0:"
    INDEX 01 00:03:57
  TRACK 04 AUDIO
    TITLE "7:cjc092_3142"
    INDEX 01 00:04:25
  TRACK 05 AUDIO
    TITLE "8:cjc092_3143"
    INDEX 01 00:05:54
  TRACK 06 AUDIO
    TITLE "0:"
    INDEX 01 00:08:42
  TRACK 07 AUDIO
    TITLE "7:cjc092_3144"
    INDEX 01 00:09:02
  TRACK 08 AUDIO
    TITLE "8:cjc092_3145"
    INDEX 01 00:10:18
  TRACK 09 AUDIO
    TITLE "0:"
    INDEX 01 00:12:05
  TRACK 10 AUDIO
    TITLE "7:cjc092_3146"
    INDEX 01 00:12:40
  TRACK 11 AUDIO
    TITLE "8:cjc092_3147"
    INDEX 01 00:13:69
  TRACK 12 AUDIO
    TITLE "0:"
    INDEX 01 00:18:42
  TRACK 13 AUDIO
    TITLE "7:cjc092_3148"
    INDEX 01 00:19:03
  TRACK 14 AUDIO
    TITLE "8:cjc092_3149"
    INDEX 01 00:20:39
  TRACK 15 AUDIO
    TITLE "0:"
    INDEX 01 00:24:27
  TRACK 16 AUDIO
    TITLE "7:cjc092_3150"
    INDEX 01 00:24:63
  TRACK 17 AUDIO
    TITLE "8:cjc092_3151"
    INDEX 01 00:26:34
  TRACK 18 AUDIO
    TITLE "0:"
    INDEX 01 00:28:72
  TRACK 19 AUDIO
    TITLE "7:cjc092_3152"
    INDEX 01 00:29:33
  TRACK 20 AUDIO
    TITLE "8:cjc092_3153"
    INDEX 01 00:30:67
  TRACK 21 AUDIO
    TITLE "0:"
    INDEX 01 00:33:01
  TRACK 22 AUDIO
    TITLE "7:cjc092_3154"
    INDEX 01 00:33:30
  TRACK 23 AUDIO
    TITLE "8:cjc092_3155"
    INDEX 01 00:34:49
  TRACK 24 AUDIO
    TITLE "0:"
    INDEX 01 00:35:64
  TRACK 25 AUDIO
    TITLE "7:cjc092_3156"
    INDEX 01 00:36:23
  TRACK 26 AUDIO
    TITLE "8:cjc092_3157"
    INDEX 01 00:37:59
  TRACK 27 AUDIO
    TITLE "0:"
    INDEX 01 00:39:66
  TRACK 28 AUDIO
    TITLE "7:cjc092_3158"
    INDEX 01 00:40:26
  TRACK 29 AUDIO
    TITLE "8:cjc092_3159"
    INDEX 01 00:42:08
  TRACK 30 AUDIO
    TITLE "0:"
    INDEX 01 00:44:24
  TRACK 31 AUDIO
    TITLE "7:cjc092_3160"
    INDEX 01 00:44:60
  TRACK 32 AUDIO
    TITLE "8:cjc092_3161"
    INDEX 01 00:46:07
  TRACK 33 AUDIO
    TITLE "0:"
    INDEX 01 00:48:22
  TRACK 34 AUDIO
    TITLE "7:cjc092_3162"
    INDEX 01 00:48:57
  TRACK 35 AUDIO
    TITLE "8:cjc092_3163"
    INDEX 01 00:50:11
  TRACK 36 AUDIO
    TITLE "0:"
    INDEX 01 00:52:30
  TRACK 37 AUDIO
    TITLE "7:cjc092_3164"
    INDEX 01 00:52:65
  TRACK 38 AUDIO
    TITLE "8:cjc092_3165"
    INDEX 01 00:54:17
  TRACK 39 AUDIO
    TITLE "0:"
    INDEX 01 00:56:06
  TRACK 40 AUDIO
    TITLE "7:cjc092_3166"
    INDEX 01 00:56:43
  TRACK 41 AUDIO
    TITLE "8:cjc092_3167"
    INDEX 01 00:57:64
  TRACK 42 AUDIO
    TITLE "0:"
    INDEX 01 01:01:70
  TRACK 43 AUDIO
    TITLE "7:cjc092_3168"
    INDEX 01 01:02:24
  TRACK 44 AUDIO
    TITLE "8:cjc092_3169"
    INDEX 01 01:03:45
  TRACK 45 AUDIO
    TITLE "0:"
    INDEX 01 01:06:06
  TRACK 46 AUDIO
    TITLE "7:cjc092_3170"
    INDEX 01 01:06:42
  TRACK 47 AUDIO
    TITLE "8:cjc092_3171"
    INDEX 01 01:07:70
  TRACK 48 AUDIO
    TITLE "0:"
    INDEX 01 01:10:71
  TRACK 49 AUDIO
    TITLE "7:cjc092_3172"
    INDEX 01 01:11:27
  TRACK 50 AUDIO
    TITLE "8:cjc092_3173"
    INDEX 01 01:12:54
  TRACK 51 AUDIO
    TITLE "0:"
    INDEX 01 01:15:03
  TRACK 52 AUDIO
    TITLE "7:cjc092_3174"
    INDEX 01 01:15:40
  TRACK 53 AUDIO
    TITLE "8:cjc092_3175"
    INDEX 01 01:16:71
  TRACK 54 AUDIO
    TITLE "0:"
    INDEX 01 01:20:28
  TRACK 55 AUDIO
    TITLE "7:cjc092_3176"
    INDEX 01 01:20:61
  TRACK 56 AUDIO
    TITLE "8:cjc092_3177"
    INDEX 01 01:22:21
  TRACK 57 AUDIO
    TITLE "0:"
    INDEX 01 01:25:29
  TRACK 58 AUDIO
    TITLE "7:cjc092_3178"
    INDEX 01 01:25:64
  TRACK 59 AUDIO
    TITLE "8:cjc092_3179"
    INDEX 01 01:27:36
  TRACK 60 AUDIO
    TITLE "0:"
    INDEX 01 01:29:68
